<?xml version="1.0" encoding="utf-8"?>
<svg version="1.1" id="Layer_1" xmlns="http://www.w3.org/2000/svg" xmlns:xlink="http://www.w3.org/1999/xlink" x="0px" y="0px"
	 width="430px" height="80px" viewBox="0 0 430 80" enable-background="new 0 0 430 80" xml:space="preserve">
	<g>
		<path d="M429.2,40.5H93c-0.2,0-0.4-0.2-0.4-0.5c0-0.3,0.2-0.5,0.4-0.5h336.2c0.2,0,0.4,0.2,0.4,0.5
			C429.6,40.3,429.4,40.5,429.2,40.5"/>
		<path d="M398.8,4.2c5.9,0,9.2,2.9,9.2,8.1c0,4.9-3.2,7.8-8.6,7.8h-3.8v7.5h-5V4.2 M395.7,16h3c2.9,0,4.3-1.3,4.3-3.8
			c0-2.5-1.6-3.9-4.5-3.9h-2.8V16z M381.5,18.2c0,3.4-1.3,5.1-4,5.1c-2.7,0-4.1-1.7-4.1-5.1v-14h-5v13.7c0,3.3,0.8,5.9,2.5,7.6
			c1.5,1.6,3.8,2.3,6.6,2.3c4.1,0,9-1.7,9-9.9V4.2h-5V18.2z M354.8,4c5.1,0,10.4,3.1,10.4,11.9c0,8.7-5.4,11.9-10.4,11.9
			c-5.1,0-10.5-3.1-10.5-11.9C344.3,7.1,349.7,4,354.8,4 M354.8,23.4c2,0,5.3-1,5.3-7.5c0-6.5-3.3-7.5-5.3-7.5
			c-3.4,0-5.3,2.7-5.3,7.5S351.4,23.4,354.8,23.4 M339.2,20.5c0.8,1.7,1.5,3.1,3.2,3.1h1.2v3.8l-0.2,0c0,0-0.9,0.2-2.4,0.2
			c-3.9,0-5.1-2.7-6.2-5.1c-0.9-2-1.6-3.7-3.7-3.7h-2.2v8.6h-5V4.2h8.3c6.1,0,8.9,2.4,8.9,7.4c0,3.1-1.9,5.1-3.8,5.9
			C338.1,18.3,338.7,19.4,339.2,20.5 M328.9,15.1h2.8c2.8,0,4.5-1.3,4.5-3.4c0-2.2-1.5-3.4-4.1-3.4h-3.1V15.1z M310.6,19h5.1v0.3
			c0,1.5-0.5,4.1-4.1,4.1c-3.4,0-5.4-2.8-5.4-7.4c0-4.8,1.9-7.5,5.3-7.5c4,0,4.1,4.1,4.2,4.2l0,0.3l4.6-0.7V12c0-1.7-1.5-8-8.9-8
			c-6.6,0-10.4,4.3-10.4,11.9c0,7.4,3.9,11.9,10.4,11.9c6.6,0,8.9-4.6,8.9-8.5v-4.1h-9.8V19z M295.7,4.2h-5.9L282,14.7V4.2h-5v23.4h5
			V16.8l7.9,10.8h6l-9.1-11.8L295.7,4.2z M267.5,18.6l-8.2-14.4h-5.1v23.4h5V13.6l8.1,13.9h5.1V4.2h-5V18.6z M244.4,4.3l8.5,23.2
			h-5.2l-2-5.7H238l-1.9,5.7h-5.2l8.6-23.4h4.9L244.4,4.3z M241.9,10.6l-2.5,7.4h5.1L241.9,10.6z M226.2,15.3
			c1.8,0.5,4.1,2.2,4.1,5.7c0,4.2-3,6.7-8.2,6.7h-9.9V4.2h8.9c5.1,0,7.6,2.1,7.6,6.3C228.8,13.7,227.4,14.9,226.2,15.3 M220.7,13.8
			c2.1,0,3-0.9,3-2.7c0-1.8-1.2-2.7-3.7-2.7h-2.8v5.4H220.7z M217.3,23.4h3.9c2.5,0,3.7-1,3.7-3c0-2.5-2.1-3-3.8-3h-3.8V23.4z
			 M191.8,4.2c7.3,0,11.6,4.5,11.6,12.1c0,7.2-3.9,11.3-10.6,11.3h-7.9V4.2H191.8z M189.8,23.4h2.9c3.6,0,5.7-2.7,5.7-7.2
			c0-5.2-2.3-7.9-6.7-7.9h-1.9V23.4z M172.4,4.2h-5v23.4h15.1v-4.1h-10.1V4.2z M160.7,20.5c0.8,1.7,1.5,3.1,3.2,3.1h1.2v3.8l-0.2,0
			c0,0-0.9,0.2-2.4,0.2c-3.9,0-5.1-2.7-6.2-5.1c-0.9-2-1.6-3.7-3.7-3.7h-2.2v8.6h-5V4.2h8.3c6.1,0,8.9,2.4,8.9,7.4
			c0,3.1-1.9,5.1-3.8,5.9C159.6,18.3,160.2,19.4,160.7,20.5 M150.4,15.1h2.8c2.8,0,4.5-1.3,4.5-3.4c0-2.2-1.5-3.4-4.1-3.4h-3.1V15.1z
			 M132.1,4c5.1,0,10.4,3.1,10.4,11.9c0,8.7-5.4,11.9-10.4,11.9c-5.1,0-10.5-3.1-10.5-11.9C121.6,7.1,127,4,132.1,4 M132.1,23.4
			c2,0,5.3-1,5.3-7.5c0-6.5-3.3-7.5-5.3-7.5c-3.4,0-5.3,2.7-5.3,7.5S128.7,23.4,132.1,23.4 M115.3,4.2h5.6l-6.7,23.4h-5.6l-4.1-14.7
			l-4.1,14.7h-5.6L88,4.2h5.8l3.9,17.1l4.7-17.1h4.2l4.6,17.1L115.3,4.2z"/>
		<rect x="268.5" y="53.3" width="7.3" height="23.2"/>
		<polyline points="278.3,53.2 294.5,53.2 294.5,58.8 285.5,58.8 285.5,62.6 293.5,62.6 293.5,68.2 285.5,68.2 285.5,76.4 
			278.3,76.4 	"/>
		<path d="M312,75.8c-1.4,0.5-3.4,0.9-5.2,0.9c-6.3,0-11.3-4.1-11.3-12.3c0-7.8,5.3-11.6,11.3-11.6c2,0,3.2,0.3,5.2,0.7v6.1
			c-1.2-0.5-2.4-0.9-3.6-0.9c-3.1,0-5.4,2-5.4,5.8c0,4,2.2,6,5.2,6c1.3,0,2.6-0.3,3.9-0.9"/>
		<rect x="326.1" y="56.5" width="1.9" height="7"/>
		<path d="M329.2,58.3h1.7v1h0c0.4-0.8,1.1-1.1,1.9-1.1c1.4,0,2,1,2,2.1v3.3H333V61c0-1-0.3-1.3-0.8-1.3c-0.7,0-1.1,0.5-1.1,1.6v2.2
			h-1.8"/>
		<path d="M335.4,58.3h1.1v-1.2l1.8-0.6v1.7h1.3v1.3h-1.3v1.9c0,0.6,0.2,1,0.7,1c0.2,0,0.4,0,0.6-0.1l0.1,1.2c-0.3,0-0.7,0.1-1.1,0.1
			c-1.6,0-2-0.7-2-2v-2.1h-1"/>
		<path d="M341.8,61.5c0.1,0.7,0.7,1,1.5,1c0.5,0,1.1-0.1,1.6-0.4v1.3c-0.6,0.2-1.2,0.3-1.9,0.3c-1.7,0-3.1-1-3.1-2.8
			c0-1.7,1.2-2.7,2.8-2.7c1.9,0,2.7,1.4,2.7,2.9v0.3 M343.8,60.4c0-0.6-0.3-1.1-1-1.1c-0.7,0-1,0.5-1,1.1H343.8z"/>
		<path d="M350,59.8c-0.2-0.1-0.4-0.1-0.6-0.1c-0.8,0-1.3,0.6-1.3,1.6v2.2h-1.8v-5.3h1.7v1h0c0.3-0.7,0.8-1.1,1.6-1.1
			c0.2,0,0.4,0,0.6,0.1"/>
		<path d="M350.8,58.3h1.7v1h0c0.4-0.8,1.1-1.1,1.9-1.1c1.4,0,2,1,2,2.1v3.3h-1.8V61c0-1-0.3-1.3-0.8-1.3c-0.7,0-1.1,0.5-1.1,1.6v2.2
			h-1.8"/>
		<path d="M360.9,63.6c0-0.3,0-0.6,0-0.8h0c-0.4,0.7-0.9,0.9-1.7,0.9c-1,0-2-0.5-2-1.7c0-1.6,1.7-1.8,2.7-1.8c0.3,0,0.6,0,0.8,0.1
			c0-0.7-0.5-0.9-1.2-0.9c-0.6,0-1.2,0.1-1.7,0.4l0-1.2c0.6-0.3,1.3-0.4,2.1-0.4c1.3,0,2.5,0.6,2.5,2.2v2c0,0.4,0,0.8,0.1,1.2
			 M359.6,62.5c0.7,0,1.1-0.6,1.1-1.2c-0.2,0-0.5,0-0.8,0c-0.6,0-1.1,0.2-1.1,0.7C358.9,62.3,359.2,62.5,359.6,62.5"/>
		<path d="M363,58.3h1.1v-1.2l1.8-0.6v1.7h1.3v1.3h-1.3v1.9c0,0.6,0.2,1,0.7,1c0.2,0,0.4,0,0.6-0.1l0.1,1.2c-0.3,0-0.7,0.1-1.1,0.1
			c-1.6,0-2-0.7-2-2v-2.1h-1"/>
		<path d="M369.9,57.5h-1.8v-1.3h1.8 M368.1,58.3h1.8v5.3h-1.8V58.3z"/>
		<path d="M370.9,61c0-1.7,1.3-2.8,3.1-2.8c1.7,0,3.1,1,3.1,2.8c0,1.7-1.3,2.7-3.1,2.7C372.2,63.7,370.9,62.7,370.9,61 M375.1,61
			c0-0.8-0.3-1.5-1.2-1.5c-0.8,0-1.2,0.7-1.2,1.5c0,0.8,0.3,1.5,1.2,1.5C374.8,62.4,375.1,61.7,375.1,61"/>
		<path d="M377.8,58.3h1.7v1h0c0.4-0.8,1.1-1.1,1.9-1.1c1.4,0,2,1,2,2.1v3.3h-1.8V61c0-1-0.3-1.3-0.8-1.3c-0.7,0-1.1,0.5-1.1,1.6v2.2
			h-1.8"/>
		<path d="M387.8,63.6c0-0.3,0-0.6,0-0.8h0c-0.4,0.7-0.9,0.9-1.7,0.9c-1,0-2-0.5-2-1.7c0-1.6,1.7-1.8,2.7-1.8c0.3,0,0.6,0,0.8,0.1
			c0-0.7-0.5-0.9-1.2-0.9c-0.6,0-1.2,0.1-1.7,0.4l0-1.2c0.6-0.3,1.3-0.4,2.1-0.4c1.3,0,2.5,0.6,2.5,2.2v2c0,0.4,0,0.8,0.1,1.2
			 M386.6,62.5c0.7,0,1.1-0.6,1.1-1.2c-0.2,0-0.5,0-0.8,0c-0.6,0-1.1,0.2-1.1,0.7C385.8,62.3,386.1,62.5,386.6,62.5"/>
		<rect x="390.7" y="56" width="1.8" height="7.6"/>
		<polyline points="326.1,66.1 330.8,66.1 330.8,67.4 328,67.4 328,69 330.7,69 330.7,70.3 328,70.3 328,73.1 326.1,73.1 	"/>
		<path d="M333.6,67h-1.8v-1.3h1.8 M331.8,67.9h1.8v5.3h-1.8V67.9z"/>
		<path d="M334.9,67.9h1.7v1h0c0.4-0.8,1.1-1.1,1.9-1.1c1.4,0,2,1,2,2.1v3.3h-1.8v-2.5c0-1-0.3-1.3-0.8-1.3c-0.7,0-1.1,0.5-1.1,1.6
			v2.2h-1.8"/>
		<path d="M344.9,73.1c0-0.3,0-0.6,0-0.8h0c-0.4,0.7-0.9,0.9-1.7,0.9c-1,0-2-0.5-2-1.7c0-1.6,1.7-1.8,2.7-1.8c0.3,0,0.6,0,0.8,0.1
			c0-0.7-0.5-0.9-1.2-0.9c-0.6,0-1.2,0.1-1.7,0.4l0-1.2c0.6-0.3,1.3-0.4,2.1-0.4c1.3,0,2.5,0.6,2.5,2.2v2c0,0.4,0,0.8,0.1,1.2
			 M343.7,72c0.7,0,1.1-0.6,1.1-1.2c-0.2,0-0.5,0-0.8,0c-0.6,0-1.1,0.2-1.1,0.7C342.9,71.8,343.3,72,343.7,72"/>
		<path d="M347.6,67.9h1.7v1h0c0.4-0.8,1.1-1.1,1.9-1.1c1.4,0,2,1,2,2.1v3.3h-1.8v-2.5c0-1-0.3-1.3-0.8-1.3c-0.7,0-1.1,0.5-1.1,1.6
			v2.2h-1.8"/>
		<path d="M358.3,69.4c-0.3-0.2-0.7-0.3-1.1-0.3c-0.8,0-1.4,0.5-1.4,1.4c0,0.8,0.7,1.4,1.5,1.4c0.4,0,0.8-0.1,1.1-0.3l0,1.4
			c-0.5,0.1-1,0.2-1.5,0.2c-1.7,0-3.1-1-3.1-2.7c0-1.7,1.3-2.8,3.1-2.8c0.5,0,1,0.1,1.4,0.3"/>
		<path d="M360.7,71c0.1,0.7,0.7,1,1.5,1c0.5,0,1.1-0.1,1.6-0.4v1.3c-0.6,0.2-1.2,0.3-1.9,0.3c-1.7,0-3.1-1-3.1-2.7
			c0-1.7,1.2-2.7,2.8-2.7c1.9,0,2.6,1.4,2.6,2.9V71 M362.7,70c0-0.6-0.3-1.1-1-1.1c-0.7,0-1,0.5-1,1.1H362.7z"/>
		<path d="M374.1,73c-0.5,0.1-1.1,0.3-2.1,0.3c-1.9,0-4-0.9-4-3.6c0-2.4,1.7-3.7,4-3.7c0.7,0,1.4,0.2,2.1,0.4l-0.1,1.5
			c-0.6-0.3-1.2-0.5-1.8-0.5c-1.3,0-2.2,1-2.2,2.3c0,1.4,1,2.2,2.3,2.2c0.6,0,1.2-0.2,1.8-0.4"/>
		<path d="M374.5,70.5c0-1.7,1.3-2.8,3.1-2.8s3.1,1,3.1,2.8c0,1.7-1.3,2.7-3.1,2.7S374.5,72.2,374.5,70.5 M378.8,70.5
			c0-0.8-0.3-1.5-1.2-1.5c-0.8,0-1.2,0.7-1.2,1.5c0,0.8,0.3,1.5,1.2,1.5C378.4,72,378.8,71.3,378.8,70.5"/>
		<path d="M385.2,69.3c-0.2-0.1-0.4-0.1-0.6-0.1c-0.8,0-1.3,0.6-1.3,1.6v2.2h-1.8v-5.3h1.6v1h0c0.3-0.7,0.8-1.1,1.6-1.1
			c0.2,0,0.4,0,0.6,0.1"/>
		<path d="M385.8,67.9h1.7v0.9h0c0.4-0.7,1.1-1.1,2-1.1c1.5,0,2.2,1.4,2.2,2.7c0,1.5-0.8,2.8-2.4,2.8c-0.6,0-1.3-0.2-1.7-0.9h0v2.9
			h-1.8 M388.7,69.1c-0.7,0-1.1,0.6-1.1,1.4c0,0.8,0.5,1.3,1.1,1.3c0.7,0,1.1-0.6,1.1-1.4C389.8,69.8,389.5,69.1,388.7,69.1"/>
		<path d="M392.2,70.5c0-1.7,1.3-2.8,3.1-2.8c1.7,0,3.1,1,3.1,2.8c0,1.7-1.3,2.7-3.1,2.7C393.6,73.3,392.2,72.2,392.2,70.5
			 M396.5,70.5c0-0.8-0.3-1.5-1.2-1.5c-0.8,0-1.2,0.7-1.2,1.5c0,0.8,0.3,1.5,1.2,1.5C396.1,72,396.5,71.3,396.5,70.5"/>
		<path d="M402.9,69.3c-0.2-0.1-0.4-0.1-0.6-0.1c-0.8,0-1.3,0.6-1.3,1.6v2.2h-1.8v-5.3h1.7v1h0c0.3-0.7,0.8-1.1,1.6-1.1
			c0.2,0,0.4,0,0.6,0.1"/>
		<path d="M406.9,73.1c0-0.3,0-0.6,0-0.8h0c-0.4,0.7-0.9,0.9-1.7,0.9c-1,0-2-0.5-2-1.7c0-1.6,1.7-1.8,2.7-1.8c0.3,0,0.6,0,0.8,0.1
			c0-0.7-0.5-0.9-1.2-0.9c-0.6,0-1.2,0.1-1.7,0.4l0-1.2c0.6-0.3,1.3-0.4,2.1-0.4c1.3,0,2.5,0.6,2.5,2.2v2c0,0.4,0,0.8,0.1,1.2
			 M405.7,72c0.7,0,1.1-0.6,1.1-1.2c-0.2,0-0.5,0-0.8,0c-0.6,0-1.1,0.2-1.1,0.7C404.9,71.8,405.3,72,405.7,72"/>
		<path d="M409.1,67.9h1.1v-1.2l1.8-0.6v1.7h1.3v1.3h-1.3v1.9c0,0.6,0.2,1,0.7,1c0.2,0,0.4,0,0.6-0.1l0.1,1.2c-0.3,0-0.7,0.1-1.1,0.1
			c-1.6,0-2-0.7-2-2v-2.1h-1"/>
		<path d="M416,67h-1.8v-1.3h1.8 M414.1,67.9h1.8v5.3h-1.8V67.9z"/>
		<path d="M416.9,70.5c0-1.7,1.3-2.8,3.1-2.8c1.7,0,3.1,1,3.1,2.8c0,1.7-1.3,2.7-3.1,2.7C418.3,73.3,416.9,72.2,416.9,70.5
			 M421.2,70.5c0-0.8-0.3-1.5-1.2-1.5c-0.8,0-1.2,0.7-1.2,1.5c0,0.8,0.3,1.5,1.2,1.5C420.8,72,421.2,71.3,421.2,70.5"/>
		<path d="M423.8,67.9h1.7v1h0c0.4-0.8,1.1-1.1,1.9-1.1c1.4,0,2,1,2,2.1v3.3h-1.8v-2.5c0-1-0.3-1.3-0.8-1.3c-0.7,0-1.1,0.5-1.1,1.6
			v2.2h-1.8"/>
		<path d="M319.5,78.1c-0.2,0-0.3-0.1-0.3-0.3v-26c0-0.2,0.1-0.3,0.3-0.3c0.2,0,0.3,0.1,0.3,0.3v26C319.9,78,319.7,78.1,319.5,78.1"
			/>
		<rect x="96.1" y="69.7" width="1.3" height="6.7"/>
		<path d="M98.6,76.4v-6.7h2.5c1.4,0,2.2,0.5,2.2,1.8c0,1.2-0.7,1.4-1,1.4v0c0.4,0,1.5,0.4,1.5,1.6c0,1.4-1.1,1.9-2.3,1.9 M101,72.5
			c0.7,0,1-0.4,1-0.9c0-0.5-0.4-0.9-1.1-0.9h-0.9v1.7H101z M101.1,75.3c0.7,0,1.2-0.2,1.2-0.9c0-0.7-0.5-1-1.2-1h-1.2v1.9H101.1z"/>
		<path d="M110.1,76.4c0,0-0.2,0.1-0.7,0.1c-2,0-1.5-2.6-2.9-2.6h-0.7v2.5h-1.3v-6.7h2.4c1.6,0,2.5,0.6,2.5,2.1c0,1-0.6,1.5-1.2,1.7
			c0.7,0.6,0.7,1.9,1.6,1.9h0.3 M106.7,72.9c0.8,0,1.4-0.4,1.4-1.1c0-0.7-0.5-1.1-1.3-1.1h-1v2.1H106.7z"/>
		<path d="M110.7,76.4v-6.7h2c1.8,0,3.3,0.9,3.3,3.5c0,2.4-1.4,3.2-3,3.2 M112.9,75.3c1,0,1.7-0.7,1.7-2.2c0-1.5-0.6-2.4-2-2.4H112
			v4.6H112.9z"/>
		<path d="M119.9,74.8c-0.7,0-1.2-0.6-1.2-1.2c0-0.7,0.5-1.2,1.2-1.2c0.7,0,1.2,0.6,1.2,1.2C121.1,74.3,120.6,74.8,119.9,74.8"/>
		<rect x="124.1" y="69.7" width="1.3" height="6.7"/>
		<path d="M126.6,76.4v-6.7h2c1.8,0,3.3,0.9,3.3,3.5c0,2.4-1.4,3.2-3,3.2 M128.9,75.3c1,0,1.7-0.7,1.7-2.2c0-1.5-0.6-2.4-2-2.4h-0.6
			v4.6H128.9z"/>
		<path d="M136.3,74.7h-2.4l-0.6,1.7H132l2.5-6.7h1.3l2.5,6.7h-1.4 M134.3,73.7h1.7l-0.9-2.4L134.3,73.7z"/>
		<polyline points="92.6,53.4 102.5,53.4 102.5,55.5 98.9,55.5 98.9,65.7 96.2,65.7 96.2,55.5 92.6,55.5 	"/>
		<polyline points="103.9,65.7 103.9,53.4 106.6,53.4 106.6,58.3 111.2,58.3 111.2,53.4 113.9,53.4 113.9,65.7 111.2,65.7 
			111.2,60.3 106.6,60.3 106.6,65.7 	"/>
		<polyline points="116,53.4 124.3,53.4 124.3,55.5 118.7,55.5 118.7,58.3 123.9,58.3 123.9,60.4 118.7,60.4 118.7,63.7 124.4,63.7 
			124.4,65.7 116,65.7 	"/>
		<polyline points="137.4,53.4 140.3,53.4 142.5,62.7 142.5,62.7 144.5,53.4 147,53.4 143.9,65.7 141,65.7 138.7,56.3 138.7,56.3 
			136.3,65.7 133.3,65.7 130.3,53.4 133.1,53.4 134.9,62.7 135,62.7 	"/>
		<path d="M147.9,59.6c0-3.6,1.8-6.4,5.9-6.4c4.1,0,5.9,2.8,5.9,6.4c0,3.6-1.8,6.4-5.9,6.4C149.7,66,147.9,63.2,147.9,59.6
			 M150.7,59.6c0,2.1,0.5,4.5,3.1,4.5c2.6,0,3.1-2.4,3.1-4.5c0-2.1-0.5-4.5-3.1-4.5C151.2,55.1,150.7,57.5,150.7,59.6"/>
		<path d="M164.1,65.7h-2.6V53.4h5.2c2.1,0,4.3,0.7,4.3,3.2c0,1.6-1,2.7-2.6,3v0c2,0.2,2,1.5,2.2,3.2c0.1,0.8,0.2,2.2,0.7,2.9h-2.9
			c-0.2-1.1-0.3-2.2-0.5-3.3c-0.1-0.7-0.2-1.6-1.1-1.6h-2.8 M164.1,58.7h2.2c1.2,0,1.8-0.6,1.8-1.7c0-1.1-0.7-1.5-1.8-1.6h-2.2V58.7z
			"/>
		<polyline points="173,65.7 173,53.4 175.6,53.4 175.6,63.7 180.9,63.7 180.9,65.7 	"/>
		<path d="M182.4,53.4h4.2c3.8,0,6.2,1.9,6.2,6.1c0,4.3-2.4,6.2-6.2,6.1h-4.2 M185,63.7h1.4c3.1,0,3.6-2.1,3.6-4.1
			c0-2-0.5-4.1-3.6-4.1H185V63.7z"/>
		<path d="M199.4,65.7V53.4h4.6c2.2-0.1,4.4,0.8,4.4,3.2c0,1.3-0.9,2.3-2.2,2.7v0c1.5,0.3,2.7,1.4,2.7,3.2c0,2.4-3.1,3.3-5,3.2
			 M204.1,63.7c1.2,0,2.1-0.2,2.1-1.6c0-1.4-0.9-1.6-2.1-1.6h-2.1v3.3H204.1z M204.1,58.4c1.1,0,1.7-0.5,1.7-1.4c0-1-0.6-1.4-1.7-1.4
			h-2.1v2.9H204.1z"/>
		<path d="M209.8,65.7l4.4-12.3h3.1l4.3,12.3H219l-0.9-2.6h-4.9l-0.9,2.6 M217.5,61.1l-1.7-5.2h0l-1.8,5.2H217.5z"/>
		<polyline points="230.4,65.7 225.5,55.5 225.5,55.5 225.5,65.7 223,65.7 223,53.4 226.9,53.4 231.6,63.1 231.7,63.1 231.7,53.4 
			234.1,53.4 234.1,65.7 	"/>
		<polyline points="238.9,58.7 239,58.7 243,53.4 246.1,53.4 241.6,58.9 246.5,65.7 243.2,65.7 239,59.4 238.9,59.4 238.9,65.7 
			236.3,65.7 236.3,53.4 238.9,53.4 	"/>
		<path d="M49,65.4c5.3-0.1,10.2-0.8,14.7-2.3c1.1-0.4,2.2-0.8,3.2-1.2c-1.2,3-3,5.5-5.4,7.4c-4.6,3.4-10.1,5.8-16.1,6.7
			C46.9,73.3,48.1,69.7,49,65.4 M24.3,72.7c-0.1-0.1-0.2-0.2-0.4-0.2c-2.1-1-2.9-5.6-1.8-12.7c4,1.8,8.3,3.2,12.8,4.2
			c3.4,0.7,6.9,1.2,10.2,1.4c-1.6,7.2-3.8,10.9-5.2,10.9c-0.1,0-0.2,0-0.3,0C34.2,76.2,29,75,24.3,72.7 M5.1,49.9
			c-0.3-1.2-0.5-2.4-0.6-3.7c1.2,1.8,2.8,3.5,4.6,5.2c2.7,2.5,6,4.8,9.6,6.7c-0.7,4.1-0.9,7.8-0.5,10.8C11.9,64.2,7.3,57.6,5.1,49.9
			 M51.4,39.9c0-1.5,0-2.9-0.1-4.4c4.6-0.3,8.9-1.5,12.4-3.5c3.2,6.4,5,13.2,5,19.6c0,1.9-0.2,3.6-0.5,5.3c-1.7,1-3.6,1.9-5.8,2.6
			c-3.8,1.3-8.2,2-12.8,2.1C50.8,55.1,51.4,47.4,51.4,39.9 M35.7,60.3c-4.6-1-9-2.5-12.9-4.3c1.3-5.8,3.7-12.9,7.5-20.7
			c0.6-1.1,1.1-2.2,1.7-3.3c2.7,1.2,5.6,2.2,8.6,2.8c2.3,0.5,4.6,0.8,6.9,0.8c0,1.4,0.1,2.8,0.1,4.3c0,8.8-0.7,16-1.7,21.7
			C42.6,61.5,39.2,61.1,35.7,60.3 M11.6,48.7c-3.2-2.9-5.3-6-6.4-9.1c0.9-3.4,2.6-6.9,5.1-10.2c2.4-3.1,5.3-6,8.7-8.4
			c1,1.8,2.3,3.5,4.1,5.1c1.7,1.5,3.6,3,5.7,4.2c-0.6,1.1-1.2,2.3-1.7,3.4c-3.3,6.8-6,14-7.6,20.6C16.5,52.6,13.9,50.7,11.6,48.7
			 M48.8,14.1c4.2,3.2,8.1,7.2,11.4,12c0.6,0.9,1.2,1.8,1.7,2.7c-3,1.7-6.7,2.7-10.8,3C50.8,25.4,50,19.2,48.8,14.1 M41.5,31.1
			c-2.7-0.6-5.3-1.4-7.6-2.4c3.5-6.1,7.3-11.4,11-15.3C46,18,47,24.2,47.4,31.9C45.5,31.8,43.5,31.6,41.5,31.1 M25.6,23.4
			c-1.5-1.4-2.7-2.9-3.5-4.4c3.5-2.1,7.3-3.8,11.5-5c2.4-0.7,4.9-1.3,7.4-1.7c-3.6,4-7.1,9.1-10.4,14.8C28.7,25.9,27,24.7,25.6,23.4
			 M17.6,11.5c-0.1,0.2-0.1,0.4-0.1,0.6c-0.4,1.8-0.3,3.5,0.1,5.3c-4,2.8-7.5,6-10.3,9.7c-0.8,1.1-1.6,2.3-2.3,3.4
			C7,22.9,11.5,16.3,17.6,11.5 M21.1,12.9c0.4-1.9,1.6-3.7,3.4-5.1c4.3-1.3,9.4-1,14.7,1c-2.2,0.4-4.5,0.9-6.7,1.6
			c-4.1,1.2-8,2.9-11.5,5C20.8,14.5,20.9,13.7,21.1,12.9 M51.2,8c1.3-0.8,2.5-1.4,3.4-1.6c1.9,0.7,3.7,1.7,5.5,2.9
			C57.3,8.6,54.3,8.1,51.2,8 M45,4c1.5,0.2,3.1,0.4,4.8,0.8c-1,0.6-2.1,1.3-3.2,2.1C46.1,5.8,45.5,4.8,45,4 M40.9,5.5
			c-1.7-0.6-3.3-1.1-5-1.5c1.3-0.1,2.6-0.2,4-0.2c0.6,0,1.4,0.8,2.2,2.2C41.8,5.8,41.4,5.6,40.9,5.5 M0,40c0,3.8,0.5,7.5,1.5,11
			c0.1,0.2,0.1,0.5,0.2,0.7c0,0,0,0.1,0.1,0.1C6.8,68.1,22.1,80,40,80c8.3,0,16-2.5,22.4-6.9c0.1,0,0.1-0.1,0.2-0.1
			c0.4-0.3,0.7-0.5,1.1-0.8c7.4-5.4,12.8-13.3,15.1-22.5c0.1-0.4,0.2-0.9,0.3-1.3c0-0.1,0-0.2,0-0.3c0.5-2.6,0.8-5.3,0.8-8.1
			c0-5.4-1.1-10.6-3.1-15.6c-0.4-0.9-1.5-1.4-2.4-1c-0.9,0.4-1.4,1.5-1,2.4c1.9,4.5,2.8,9.2,2.8,14.1c0,3-0.4,5.9-1.1,8.7
			c-0.5,1.8-1.5,3.4-2.8,4.9c0-0.6,0.1-1.3,0.1-1.9c0-7.1-2-14.7-5.6-21.8c2.7-2.3,4.4-5.2,5-8.3c0.2-1-0.5-2-1.5-2.2
			c-1-0.2-2,0.5-2.2,1.5c-0.4,2.1-1.5,4-3.2,5.7c-0.5-0.9-1.1-1.8-1.7-2.6C60,19.2,56.1,15,51.9,11.7c5.6,0.4,10.8,1.7,15,4.1
			c0.7,0.4,1.5,0.4,2.1-0.1c0.8-0.7,0.9-1.8,0.2-2.6C63.2,4.6,52.8,0,40,0C17.9,0,0,17.9,0,40"/>
	</g>
</svg>