<?xml version="1.0" encoding="UTF-8" standalone="no"?>
<!-- Generator: Adobe Illustrator 19.1.0, SVG Export Plug-In . SVG Version: 6.00 Build 0)  -->

<svg
   xmlns:dc="http://purl.org/dc/elements/1.1/"
   xmlns:cc="http://creativecommons.org/ns#"
   xmlns:rdf="http://www.w3.org/1999/02/22-rdf-syntax-ns#"
   xmlns:svg="http://www.w3.org/2000/svg"
   xmlns="http://www.w3.org/2000/svg"
   xmlns:xlink="http://www.w3.org/1999/xlink"
   xmlns:sodipodi="http://sodipodi.sourceforge.net/DTD/sodipodi-0.dtd"
   xmlns:inkscape="http://www.inkscape.org/namespaces/inkscape"
   version="1.1"
   id="Layer_1"
   x="0px"
   y="0px"
   viewBox="0 0 195.80515 44.099998"
   xml:space="preserve"
   inkscape:version="0.48.4 r9939"
   width="100%"
   height="100%"
   sodipodi:docname="WBG logo-01.svg"><metadata
     id="metadata202"><rdf:RDF><cc:Work
         rdf:about=""><dc:format>image/svg+xml</dc:format><dc:type
           rdf:resource="http://purl.org/dc/dcmitype/StillImage" /><dc:title></dc:title></cc:Work></rdf:RDF></metadata><defs
     id="defs200" /><sodipodi:namedview
     pagecolor="#ffffff"
     bordercolor="#666666"
     borderopacity="1"
     objecttolerance="10"
     gridtolerance="10"
     guidetolerance="10"
     inkscape:pageopacity="0"
     inkscape:pageshadow="2"
     inkscape:window-width="1920"
     inkscape:window-height="1056"
     id="namedview198"
     showgrid="false"
     fit-margin-top="0"
     fit-margin-left="0"
     fit-margin-right="0"
     fit-margin-bottom="0"
     inkscape:zoom="4"
     inkscape:cx="144.33994"
     inkscape:cy="36.955678"
     inkscape:window-x="0"
     inkscape:window-y="24"
     inkscape:window-maximized="1"
     inkscape:current-layer="Layer_1" /><style
     type="text/css"
     id="style3">
	.st0{fill:none;stroke:#000000;stroke-width:0.809;stroke-miterlimit:10;}
	.st1{fill:none;stroke:#000000;stroke-width:0.1914;stroke-miterlimit:10;}
	.st2{fill:#002F54;}
	.st3{clip-path:url(#SVGID_4_);fill:url(#SVGID_5_);}
	.st4{fill:none;stroke:#15557A;stroke-width:0.8103;stroke-miterlimit:10;}
	.st5{fill:none;stroke:#15557A;stroke-width:0.1917;stroke-miterlimit:10;}
	.st6{fill:#00AEEF;}
</style><g
     id="g5"
     transform="translate(-19.1,-27.3)"><g
       id="g7"><g
         id="g9"><g
           id="g11"><path
             class="st2"
             d="M 64,27.9 63.2,30 h 1.7 m -1.2,-2.7 h 0.6 l 1.8,4.2 h -0.7 l -0.4,-1 h -2 l -0.4,1 H 62 l 1.7,-4.2 z"
             id="path13"
             inkscape:connector-curvature="0"
             style="fill:#002f54" /><polyline
             class="st2"
             points="67,27.3 67.8,27.3 69.6,30.7 69.6,30.7 69.6,27.3 70.2,27.3 70.2,31.5 69.5,31.5 67.6,28.1       67.6,28.1 67.6,31.5 67,31.5     "
             id="polyline15"
             style="fill:#002f54" /><rect
             x="73.400002"
             y="27.299999"
             class="st2"
             width="0.60000002"
             height="4.1999998"
             id="rect17"
             style="fill:#002f54" /><polyline
             class="st2"
             points="75.3,27.3 76.1,27.3 77.9,30.7 77.9,30.7 77.9,27.3 78.5,27.3 78.5,31.5 77.8,31.5 75.9,28.1       75.9,28.1 75.9,31.5 75.3,31.5     "
             id="polyline19"
             style="fill:#002f54" /><polyline
             class="st2"
             points="79.8,27.3 80.6,27.3 82.4,30.7 82.5,30.7 82.5,27.3 83.1,27.3 83.1,31.5 82.3,31.5 80.4,28.1       80.4,28.1 80.4,31.5 79.8,31.5     "
             id="polyline21"
             style="fill:#002f54" /><path
             class="st2"
             d="m 86.1,31 c 1,0 1.4,-0.8 1.4,-1.6 0,-0.8 -0.5,-1.6 -1.4,-1.6 -0.9,0 -1.4,0.8 -1.4,1.6 0.1,0.8 0.5,1.6 1.4,1.6 m 0,-3.7 c 1.3,0 2,0.9 2,2.2 0,1.3 -0.7,2.2 -2,2.2 -1.3,0 -2,-0.9 -2,-2.2 0,-1.3 0.8,-2.2 2,-2.2"
             id="path23"
             inkscape:connector-curvature="0"
             style="fill:#002f54" /><polyline
             class="st2"
             points="91,31.5 90.3,31.5 88.7,27.3 89.4,27.3 90.7,31 90.7,31 92,27.3 92.6,27.3     "
             id="polyline25"
             style="fill:#002f54" /><path
             class="st2"
             d="M 94.8,27.9 94,30 h 1.7 m -1.2,-2.7 h 0.6 l 1.8,4.2 h -0.6 l -0.4,-1 h -2 l -0.4,1 h -0.6 l 1.6,-4.2 z"
             id="path27"
             inkscape:connector-curvature="0"
             style="fill:#002f54" /><polyline
             class="st2"
             points="98.1,27.9 96.8,27.9 96.8,27.3 100,27.3 100,27.9 98.7,27.9 98.7,31.5 98.1,31.5     "
             id="polyline29"
             style="fill:#002f54" /><rect
             x="100.8"
             y="27.299999"
             class="st2"
             width="0.60000002"
             height="4.1999998"
             id="rect31"
             style="fill:#002f54" /><path
             class="st2"
             d="m 104.5,31 c 1,0 1.4,-0.8 1.4,-1.6 0,-0.8 -0.5,-1.6 -1.4,-1.6 -0.9,0 -1.4,0.8 -1.4,1.6 0,0.8 0.4,1.6 1.4,1.6 m 0,-3.7 c 1.3,0 2,0.9 2,2.2 0,1.3 -0.7,2.2 -2,2.2 -1.3,0 -2,-0.9 -2,-2.2 0,-1.3 0.7,-2.2 2,-2.2"
             id="path33"
             inkscape:connector-curvature="0"
             style="fill:#002f54" /><polyline
             class="st2"
             points="107.6,27.3 108.4,27.3 110.2,30.7 110.2,30.7 110.2,27.3 110.8,27.3 110.8,31.5 110.1,31.5       108.2,28.1 108.2,28.1 108.2,31.5 107.6,31.5     "
             id="polyline35"
             style="fill:#002f54" /><path
             class="st2"
             d="m 115.8,31 c 1,0 1.4,-0.8 1.4,-1.6 0,-0.8 -0.5,-1.6 -1.4,-1.6 -0.9,0 -1.4,0.8 -1.4,1.6 0,0.8 0.4,1.6 1.4,1.6 m 0,-3.7 c 1.3,0 2,0.9 2,2.2 0,1.3 -0.7,2.2 -2,2.2 -1.3,0 -2,-0.9 -2,-2.2 0,-1.3 0.7,-2.2 2,-2.2"
             id="path37"
             inkscape:connector-curvature="0"
             style="fill:#002f54" /><polygon
             class="st2"
             points="119.4,27.8 119.4,29.1 121,29.1 121,29.6 119.4,29.6 119.4,31.5 118.8,31.5 118.8,27.3 121,27.3 121,27.8 "
             id="polygon39"
             style="fill:#002f54" /></g></g><g
         id="g41"><g
           id="g43"><defs
             id="defs45"><path
               id="SVGID_3_"
               d="m 42.5,64.5 c 2.5,0 4.9,-0.4 7,-1.1 0.5,-0.2 1,-0.4 1.5,-0.6 -0.6,1.4 -1.4,2.6 -2.6,3.5 -2.2,1.6 -4.8,2.7 -7.7,3.2 0.7,-1.2 1.3,-3 1.8,-5 M 30.7,68 c -0.1,0 -0.1,-0.1 -0.2,-0.1 -1,-0.5 -1.4,-2.7 -0.9,-6 1.9,0.8 4,1.5 6.1,2 1.6,0.3 3.3,0.6 4.9,0.6 -0.8,3.4 -1.8,5.2 -2.5,5.2 0,0 -0.1,0 -0.1,0 -2.6,0 -5.1,-0.6 -7.3,-1.7 M 21.5,57.1 c -0.2,-0.6 -0.2,-1.2 -0.3,-1.8 0.6,0.8 1.3,1.7 2.2,2.5 1.3,1.2 2.8,2.3 4.6,3.2 -0.3,2 -0.4,3.7 -0.2,5.2 -3,-2.3 -5.2,-5.4 -6.3,-9.1 m 22.1,-4.7 c 0,-0.7 0,-1.4 0,-2.1 2.2,-0.1 4.2,-0.7 5.9,-1.7 1.5,3.1 2.4,6.3 2.4,9.3 0,0.9 -0.1,1.7 -0.2,2.5 -0.8,0.5 -1.7,0.9 -2.7,1.3 -1.8,0.6 -3.9,1 -6.1,1 0.4,-3.1 0.7,-6.8 0.7,-10.3 m -7.5,9.7 c -2.2,-0.5 -4.3,-1.2 -6.2,-2 0.6,-2.8 1.8,-6.1 3.6,-9.9 0.3,-0.5 0.5,-1.1 0.8,-1.6 1.3,0.6 2.7,1 4.1,1.3 1.1,0.2 2.2,0.4 3.3,0.4 0,0.7 0,1.4 0,2.1 0,4.2 -0.3,7.6 -0.8,10.4 -1.5,-0.2 -3.1,-0.4 -4.8,-0.7 M 24.6,56.5 c -1.5,-1.4 -2.5,-2.9 -3.1,-4.3 0.4,-1.6 1.2,-3.3 2.4,-4.9 1.1,-1.5 2.5,-2.8 4.1,-4 0.5,0.8 1.1,1.7 1.9,2.4 0.8,0.7 1.7,1.4 2.7,2 -0.3,0.5 -0.6,1.1 -0.8,1.6 -1.6,3.2 -2.9,6.7 -3.6,9.8 C 27,58.4 25.7,57.5 24.6,56.5 M 42.4,40 c 2,1.5 3.9,3.4 5.4,5.7 0.3,0.4 0.6,0.9 0.8,1.3 -1.4,0.8 -3.2,1.3 -5.1,1.4 -0.2,-3 -0.6,-5.9 -1.1,-8.4 m -3.6,8.2 c -1.3,-0.3 -2.5,-0.7 -3.6,-1.2 1.7,-2.9 3.5,-5.4 5.2,-7.3 0.6,2.2 1,5.1 1.2,8.8 -0.8,0 -1.8,-0.1 -2.8,-0.3 m -7.5,-3.7 c -0.7,-0.7 -1.3,-1.4 -1.7,-2.1 1.7,-1 3.5,-1.8 5.5,-2.4 1.2,-0.4 2.3,-0.6 3.5,-0.8 -1.7,1.9 -3.4,4.3 -4.9,7 -0.9,-0.5 -1.7,-1.1 -2.4,-1.7 m -3.8,-5.7 c 0,0.1 -0.1,0.2 -0.1,0.3 -0.2,0.8 -0.2,1.7 0.1,2.5 -1.9,1.3 -3.6,2.9 -4.9,4.6 -0.4,0.5 -0.8,1.1 -1.1,1.6 0.9,-3.6 3.1,-6.7 6,-9 m 1.6,0.7 c 0.2,-0.9 0.7,-1.7 1.6,-2.4 2.1,-0.6 4.5,-0.5 7,0.5 -1.1,0.2 -2.1,0.4 -3.2,0.7 -2,0.6 -3.8,1.4 -5.5,2.4 0,-0.5 0,-0.9 0.1,-1.2 m 14.4,-2.4 c 0.6,-0.4 1.2,-0.7 1.6,-0.8 0.9,0.4 1.8,0.8 2.6,1.4 -1.3,-0.3 -2.7,-0.5 -4.2,-0.6 m -3,-1.9 c 0.7,0.1 1.5,0.2 2.3,0.4 -0.5,0.3 -1,0.6 -1.5,1 -0.3,-0.5 -0.5,-1 -0.8,-1.4 m -1.9,0.7 c -0.8,-0.3 -1.6,-0.5 -2.4,-0.7 0.6,-0.1 1.3,-0.1 1.9,-0.1 0.3,0 0.7,0.4 1.1,1.1 C 39,36.1 38.8,36 38.6,35.9 M 19.1,52.4 c 0,1.8 0.3,3.6 0.7,5.2 0,0.1 0.1,0.2 0.1,0.3 0,0 0,0 0,0.1 2.4,7.8 9.7,13.4 18.2,13.4 4,0 7.6,-1.2 10.7,-3.3 0,0 0.1,0 0.1,0 0.2,-0.1 0.4,-0.3 0.5,-0.4 3.5,-2.6 6.1,-6.4 7.2,-10.7 0.1,-0.2 0.1,-0.4 0.2,-0.6 0,0 0,-0.1 0,-0.1 0.3,-1.3 0.4,-2.6 0.4,-3.9 0,-2.6 -0.5,-5.1 -1.5,-7.4 -0.2,-0.5 -0.7,-0.7 -1.2,-0.5 -0.5,0.2 -0.7,0.7 -0.5,1.2 0.9,2.1 1.4,4.4 1.4,6.7 0,1.4 -0.2,2.8 -0.5,4.2 -0.3,0.8 -0.7,1.6 -1.4,2.3 0,-0.3 0,-0.6 0,-0.9 0,-3.4 -0.9,-7 -2.7,-10.4 1.3,-1.1 2.1,-2.5 2.4,-4 0.1,-0.5 -0.2,-0.9 -0.7,-1 -0.5,-0.1 -0.9,0.2 -1,0.7 -0.2,1 -0.7,1.9 -1.5,2.7 -0.3,-0.4 -0.5,-0.8 -0.8,-1.2 -1.6,-2.3 -3.4,-4.3 -5.4,-5.8 2.7,0.2 5.1,0.8 7.1,1.9 0.3,0.2 0.7,0.2 1,-0.1 0.4,-0.3 0.4,-0.9 0.1,-1.2 -2.9,-4 -7.8,-6.2 -13.9,-6.2 -10.5,-0.1 -19,8.5 -19,19"
               inkscape:connector-curvature="0" /></defs><clipPath
             id="SVGID_2_"><use
               xlink:href="#SVGID_3_"
               style="overflow:visible"
               id="use49"
               x="0"
               y="0"
               width="232.7"
               height="98.5" /></clipPath><radialGradient
             id="SVGID_4_"
             cx="-300.48141"
             cy="474.04099"
             r="0.66589999"
             gradientTransform="matrix(47.4645,0,0,-47.4647,14317.686,22540.664)"
             gradientUnits="userSpaceOnUse"><stop
               offset="0"
               style="stop-color:#FFFFFF"
               id="stop52" /><stop
               offset="5.979540e-02"
               style="stop-color:#E7F6FD"
               id="stop54" /><stop
               offset="0.1829"
               style="stop-color:#AFE2FA"
               id="stop56" /><stop
               offset="0.3589"
               style="stop-color:#37C6F4"
               id="stop58" /><stop
               offset="0.544"
               style="stop-color:#00AEEF"
               id="stop60" /><stop
               offset="1"
               style="stop-color:#002F54"
               id="stop62" /></radialGradient><rect
             x="19.1"
             y="33.299999"
             style="fill:url(#SVGID_4_)"
             width="38.099998"
             height="38.099998"
             id="rect64"
             clip-path="url(#SVGID_2_)" /></g><g
           id="g66"><line
             class="st4"
             x1="62"
             y1="51.5"
             x2="214.5"
             y2="51.5"
             id="line68"
             style="fill:none;stroke:#15557a;stroke-width:0.81029999;stroke-miterlimit:10" /><g
             id="g70"><g
               id="g72"><g
                 id="g74"><path
                   class="st2"
                   d="m 144.5,57.8 v 10.9 h -3.4 V 57.8 h 3.4 z"
                   id="path76"
                   inkscape:connector-curvature="0"
                   style="fill:#002f54" /><path
                   class="st2"
                   d="m 145.7,57.8 h 7.6 v 2.6 h -4.2 v 1.8 h 3.7 v 2.6 h -3.7 v 3.9 h -3.4 V 57.8 z"
                   id="path78"
                   inkscape:connector-curvature="0"
                   style="fill:#002f54" /><path
                   class="st2"
                   d="m 161.6,68.4 c -0.6,0.2 -1.6,0.4 -2.4,0.4 -3,0 -5.3,-1.9 -5.3,-5.8 0,-3.7 2.5,-5.5 5.3,-5.5 0.9,0 1.5,0.1 2.4,0.3 v 2.9 c -0.6,-0.2 -1.1,-0.4 -1.7,-0.4 -1.5,0 -2.6,0.9 -2.6,2.7 0,1.9 1,2.8 2.4,2.8 0.6,0 1.2,-0.2 1.8,-0.4 v 3 z"
                   id="path80"
                   inkscape:connector-curvature="0"
                   style="fill:#002f54" /></g><g
                 id="g82"><path
                   class="st5"
                   d="M 165.1,69.6 C 165,69.6 165,69.5 165,69.5 V 57.2 c 0,-0.1 0.1,-0.1 0.1,-0.1 0.1,0 0.1,0.1 0.1,0.1 v 12.2 c 0.1,0.1 0,0.2 -0.1,0.2 z"
                   id="path84"
                   inkscape:connector-curvature="0"
                   style="fill:none;stroke:#15557a;stroke-width:0.1917;stroke-miterlimit:10" /></g><g
                 id="g86"><g
                   id="g88"><path
                     class="st6"
                     d="m 168.2,59.6 h 0.8 v 3.2 h -0.8 v -3.2 z"
                     id="path90"
                     inkscape:connector-curvature="0"
                     style="fill:#00aeef" /><path
                     class="st6"
                     d="m 169.6,60.4 h 0.7 v 0.4 h 0 c 0.2,-0.3 0.5,-0.5 0.9,-0.5 0.6,0 0.9,0.5 0.9,0.9 v 1.5 h -0.8 v -1.1 c 0,-0.4 -0.1,-0.6 -0.4,-0.6 -0.3,0 -0.5,0.2 -0.5,0.7 v 1 h -0.8 v -2.3 z"
                     id="path92"
                     inkscape:connector-curvature="0"
                     style="fill:#00aeef" /><path
                     class="st6"
                     d="m 172.4,60.4 h 0.5 v -0.5 l 0.8,-0.3 v 0.8 h 0.6 V 61 h -0.6 v 0.9 c 0,0.3 0.1,0.4 0.3,0.4 0.1,0 0.2,0 0.2,0 l 0,0.5 c -0.2,0 -0.3,0 -0.5,0 -0.7,0 -0.9,-0.3 -0.9,-0.9 v -1 h -0.5 v -0.5 z"
                     id="path94"
                     inkscape:connector-curvature="0"
                     style="fill:#00aeef" /><path
                     class="st6"
                     d="m 175.2,61.8 c 0,0.3 0.3,0.5 0.7,0.5 0.2,0 0.5,-0.1 0.7,-0.2 v 0.6 c -0.3,0.1 -0.6,0.1 -0.9,0.1 -0.8,0 -1.4,-0.5 -1.4,-1.2 0,-0.8 0.5,-1.2 1.3,-1.2 0.9,0 1.2,0.6 1.2,1.3 v 0.1 h -1.6 z m 0.9,-0.5 c 0,-0.3 -0.1,-0.5 -0.5,-0.5 -0.3,0 -0.4,0.2 -0.5,0.5 h 1 z"
                     id="path96"
                     inkscape:connector-curvature="0"
                     style="fill:#00aeef" /><path
                     class="st6"
                     d="m 178.9,61 c -0.1,0 -0.2,0 -0.3,0 -0.4,0 -0.6,0.3 -0.6,0.7 v 1 h -0.8 v -2.4 h 0.7 v 0.4 h 0 c 0.1,-0.3 0.3,-0.5 0.7,-0.5 0.1,0 0.2,0 0.3,0 l 0,0.8 z"
                     id="path98"
                     inkscape:connector-curvature="0"
                     style="fill:#00aeef" /><path
                     class="st6"
                     d="m 179.3,60.4 h 0.7 v 0.4 h 0 c 0.2,-0.3 0.5,-0.5 0.9,-0.5 0.6,0 0.9,0.5 0.9,0.9 v 1.5 H 181 v -1.1 c 0,-0.4 -0.2,-0.6 -0.4,-0.6 -0.3,0 -0.5,0.2 -0.5,0.7 v 1 h -0.8 v -2.3 z"
                     id="path100"
                     inkscape:connector-curvature="0"
                     style="fill:#00aeef" /><path
                     class="st6"
                     d="m 183.8,62.7 c 0,-0.1 0,-0.2 0,-0.4 h 0 c -0.2,0.3 -0.4,0.4 -0.7,0.4 -0.5,0 -0.9,-0.2 -0.9,-0.7 0,-0.7 0.8,-0.8 1.2,-0.8 0.1,0 0.3,0 0.4,0 0,-0.3 -0.2,-0.4 -0.5,-0.4 -0.3,0 -0.5,0.1 -0.7,0.2 l 0,-0.6 c 0.3,-0.1 0.6,-0.2 0.9,-0.2 0.6,0 1.1,0.3 1.1,1 v 0.9 c 0,0.2 0,0.4 0,0.6 h -0.8 z m -0.6,-0.4 c 0.3,0 0.5,-0.3 0.5,-0.6 -0.1,0 -0.2,0 -0.3,0 -0.3,0 -0.5,0.1 -0.5,0.3 0,0.2 0.1,0.3 0.3,0.3 z"
                     id="path102"
                     inkscape:connector-curvature="0"
                     style="fill:#00aeef" /><path
                     class="st6"
                     d="m 184.7,60.4 h 0.5 v -0.5 l 0.8,-0.3 v 0.8 h 0.6 V 61 H 186 v 0.9 c 0,0.3 0.1,0.4 0.3,0.4 0.1,0 0.2,0 0.2,0 l 0,0.5 c -0.2,0 -0.3,0 -0.5,0 -0.7,0 -0.9,-0.3 -0.9,-0.9 v -1 h -0.5 v -0.5 z"
                     id="path104"
                     inkscape:connector-curvature="0"
                     style="fill:#00aeef" /><path
                     class="st6"
                     d="M 187.8,60 H 187 v -0.6 h 0.8 V 60 z m -0.8,0.4 h 0.8 v 2.4 H 187 v -2.4 z"
                     id="path106"
                     inkscape:connector-curvature="0"
                     style="fill:#00aeef" /><path
                     class="st6"
                     d="m 188.3,61.6 c 0,-0.8 0.6,-1.2 1.4,-1.2 0.8,0 1.4,0.5 1.4,1.2 0,0.8 -0.6,1.2 -1.4,1.2 -0.8,0 -1.4,-0.5 -1.4,-1.2 z m 1.9,0 c 0,-0.3 -0.2,-0.7 -0.5,-0.7 -0.4,0 -0.5,0.3 -0.5,0.7 0,0.3 0.2,0.7 0.5,0.7 0.3,-0.1 0.5,-0.4 0.5,-0.7 z"
                     id="path108"
                     inkscape:connector-curvature="0"
                     style="fill:#00aeef" /><path
                     class="st6"
                     d="m 191.3,60.4 h 0.7 v 0.4 h 0 c 0.2,-0.3 0.5,-0.5 0.9,-0.5 0.6,0 0.9,0.5 0.9,0.9 v 1.5 H 193 v -1.1 c 0,-0.4 -0.2,-0.6 -0.4,-0.6 -0.3,0 -0.5,0.2 -0.5,0.7 v 1 h -0.8 v -2.3 z"
                     id="path110"
                     inkscape:connector-curvature="0"
                     style="fill:#00aeef" /><path
                     class="st6"
                     d="m 195.9,62.7 c 0,-0.1 0,-0.2 0,-0.4 h 0 c -0.2,0.3 -0.4,0.4 -0.7,0.4 -0.5,0 -0.9,-0.2 -0.9,-0.7 0,-0.7 0.8,-0.8 1.2,-0.8 0.1,0 0.3,0 0.4,0 0,-0.3 -0.2,-0.4 -0.5,-0.4 -0.3,0 -0.5,0.1 -0.8,0.2 l 0,-0.6 c 0.3,-0.1 0.6,-0.2 0.9,-0.2 0.6,0 1.1,0.3 1.1,1 v 0.9 c 0,0.2 0,0.4 0,0.6 h -0.7 z m -0.6,-0.4 c 0.3,0 0.5,-0.3 0.5,-0.6 -0.1,0 -0.2,0 -0.3,0 -0.3,0 -0.5,0.1 -0.5,0.3 0,0.2 0.1,0.3 0.3,0.3 z"
                     id="path112"
                     inkscape:connector-curvature="0"
                     style="fill:#00aeef" /><path
                     class="st6"
                     d="m 197.1,59.4 h 0.8 v 3.4 h -0.8 v -3.4 z"
                     id="path114"
                     inkscape:connector-curvature="0"
                     style="fill:#00aeef" /><path
                     class="st6"
                     d="m 168.2,63.9 h 2.1 v 0.6 H 169 v 0.7 h 1.2 v 0.6 H 169 V 67 h -0.8 v -3.1 z"
                     id="path116"
                     inkscape:connector-curvature="0"
                     style="fill:#00aeef" /><path
                     class="st6"
                     d="m 171.6,64.3 h -0.8 v -0.6 h 0.8 v 0.6 z m -0.8,0.4 h 0.8 V 67 h -0.8 v -2.3 z"
                     id="path118"
                     inkscape:connector-curvature="0"
                     style="fill:#00aeef" /><path
                     class="st6"
                     d="m 172.1,64.7 h 0.7 v 0.4 h 0 c 0.2,-0.3 0.5,-0.5 0.9,-0.5 0.6,0 0.9,0.4 0.9,0.9 V 67 h -0.8 v -1.1 c 0,-0.4 -0.2,-0.6 -0.4,-0.6 -0.3,0 -0.5,0.2 -0.5,0.7 v 1 h -0.8 v -2.3 z"
                     id="path120"
                     inkscape:connector-curvature="0"
                     style="fill:#00aeef" /><path
                     class="st6"
                     d="m 176.6,67 c 0,-0.1 0,-0.2 0,-0.4 h 0 c -0.2,0.3 -0.4,0.4 -0.7,0.4 -0.5,0 -0.9,-0.2 -0.9,-0.7 0,-0.7 0.8,-0.8 1.2,-0.8 0.1,0 0.3,0 0.4,0 0,-0.3 -0.2,-0.4 -0.5,-0.4 -0.3,0 -0.5,0 -0.7,0.2 l 0,-0.6 c 0.3,-0.1 0.6,-0.2 0.9,-0.2 0.6,0 1.1,0.3 1.1,1 v 0.9 c 0,0.2 0,0.4 0,0.6 h -0.8 z m -0.5,-0.5 c 0.3,0 0.5,-0.3 0.5,-0.6 -0.1,0 -0.2,0 -0.3,0 -0.3,0 -0.5,0.1 -0.5,0.3 -0.1,0.2 0.1,0.3 0.3,0.3 z"
                     id="path122"
                     inkscape:connector-curvature="0"
                     style="fill:#00aeef" /><path
                     class="st6"
                     d="m 177.8,64.7 h 0.7 v 0.4 h 0 c 0.2,-0.3 0.5,-0.5 0.9,-0.5 0.6,0 0.9,0.4 0.9,0.9 V 67 h -0.8 v -1.1 c 0,-0.4 -0.2,-0.6 -0.4,-0.6 -0.3,0 -0.5,0.2 -0.5,0.7 v 1 h -0.8 v -2.3 z"
                     id="path124"
                     inkscape:connector-curvature="0"
                     style="fill:#00aeef" /><path
                     class="st6"
                     d="m 182.6,65.3 c -0.1,-0.1 -0.3,-0.1 -0.5,-0.1 -0.4,0 -0.6,0.2 -0.6,0.7 0,0.4 0.3,0.6 0.7,0.6 0.2,0 0.4,0 0.5,-0.1 l 0,0.6 c -0.2,0.1 -0.4,0.1 -0.7,0.1 -0.8,0 -1.4,-0.4 -1.4,-1.2 0,-0.8 0.6,-1.2 1.4,-1.2 0.2,0 0.5,0 0.6,0.1 l 0,0.5 z"
                     id="path126"
                     inkscape:connector-curvature="0"
                     style="fill:#00aeef" /><path
                     class="st6"
                     d="m 183.7,66.1 c 0,0.3 0.3,0.4 0.7,0.4 0.2,0 0.5,-0.1 0.7,-0.2 v 0.6 c -0.3,0.1 -0.6,0.1 -0.9,0.1 -0.8,0 -1.4,-0.5 -1.4,-1.2 0,-0.8 0.5,-1.2 1.3,-1.2 0.9,0 1.2,0.6 1.2,1.3 v 0.2 h -1.6 z m 0.9,-0.5 c 0,-0.3 -0.1,-0.5 -0.5,-0.5 -0.3,0 -0.4,0.2 -0.4,0.5 h 0.9 z"
                     id="path128"
                     inkscape:connector-curvature="0"
                     style="fill:#00aeef" /><path
                     class="st6"
                     d="m 189.7,67 c -0.2,0.1 -0.5,0.1 -0.9,0.1 -0.8,0 -1.8,-0.4 -1.8,-1.6 0,-1.1 0.8,-1.6 1.8,-1.6 0.3,0 0.6,0.1 0.9,0.2 l -0.1,0.7 c -0.3,-0.1 -0.5,-0.2 -0.8,-0.2 -0.6,0 -1,0.4 -1,1 0,0.6 0.4,1 1.1,1 0.3,0 0.6,-0.1 0.8,-0.2 l 0,0.6 z"
                     id="path130"
                     inkscape:connector-curvature="0"
                     style="fill:#00aeef" /><path
                     class="st6"
                     d="m 189.9,65.9 c 0,-0.8 0.6,-1.2 1.4,-1.2 0.8,0 1.4,0.4 1.4,1.2 0,0.8 -0.6,1.2 -1.4,1.2 -0.8,0 -1.4,-0.5 -1.4,-1.2 z m 1.9,0 c 0,-0.4 -0.2,-0.7 -0.5,-0.7 -0.4,0 -0.5,0.3 -0.5,0.7 0,0.3 0.1,0.7 0.5,0.7 0.3,-0.1 0.5,-0.4 0.5,-0.7 z"
                     id="path132"
                     inkscape:connector-curvature="0"
                     style="fill:#00aeef" /><path
                     class="st6"
                     d="m 194.7,65.3 c -0.1,0 -0.2,0 -0.3,0 -0.4,0 -0.6,0.3 -0.6,0.7 v 1 H 193 v -2.4 h 0.7 V 65 h 0 c 0.1,-0.3 0.3,-0.5 0.7,-0.5 0.1,0 0.2,0 0.3,0 l 0,0.8 z"
                     id="path134"
                     inkscape:connector-curvature="0"
                     style="fill:#00aeef" /><path
                     class="st6"
                     d="m 195,64.7 h 0.8 v 0.4 h 0 c 0.2,-0.3 0.5,-0.5 0.9,-0.5 0.7,0 1,0.6 1,1.2 0,0.7 -0.4,1.3 -1.1,1.3 -0.3,0 -0.6,-0.1 -0.7,-0.4 h 0 V 68 H 195 v -3.3 z m 1.3,0.5 c -0.3,0 -0.5,0.3 -0.5,0.6 0,0.3 0.2,0.6 0.5,0.6 0.3,0 0.5,-0.3 0.5,-0.6 0,-0.3 -0.2,-0.6 -0.5,-0.6 z"
                     id="path136"
                     inkscape:connector-curvature="0"
                     style="fill:#00aeef" /><path
                     class="st6"
                     d="m 197.8,65.9 c 0,-0.8 0.6,-1.2 1.4,-1.2 0.8,0 1.4,0.4 1.4,1.2 0,0.8 -0.6,1.2 -1.4,1.2 -0.8,0 -1.4,-0.5 -1.4,-1.2 z m 1.9,0 c 0,-0.4 -0.2,-0.7 -0.5,-0.7 -0.4,0 -0.5,0.3 -0.5,0.7 0,0.3 0.2,0.7 0.5,0.7 0.4,-0.1 0.5,-0.4 0.5,-0.7 z"
                     id="path138"
                     inkscape:connector-curvature="0"
                     style="fill:#00aeef" /><path
                     class="st6"
                     d="m 202.6,65.3 c -0.1,0 -0.2,0 -0.3,0 -0.4,0 -0.6,0.3 -0.6,0.7 v 1 h -0.8 v -2.4 h 0.7 V 65 h 0 c 0.1,-0.3 0.3,-0.5 0.7,-0.5 0.1,0 0.2,0 0.3,0 l 0,0.8 z"
                     id="path140"
                     inkscape:connector-curvature="0"
                     style="fill:#00aeef" /><path
                     class="st6"
                     d="m 204.4,67 c 0,-0.1 0,-0.2 0,-0.4 h 0 c -0.2,0.3 -0.4,0.4 -0.7,0.4 -0.5,0 -0.9,-0.2 -0.9,-0.7 0,-0.7 0.8,-0.8 1.2,-0.8 0.1,0 0.3,0 0.4,0 0,-0.3 -0.2,-0.4 -0.5,-0.4 -0.3,0 -0.5,0 -0.8,0.2 l 0,-0.6 c 0.3,-0.1 0.6,-0.2 0.9,-0.2 0.6,0 1.1,0.3 1.1,1 v 0.9 c 0,0.2 0,0.4 0,0.6 h -0.7 z m -0.5,-0.5 c 0.3,0 0.5,-0.3 0.5,-0.6 -0.1,0 -0.2,0 -0.3,0 -0.3,0 -0.5,0.1 -0.5,0.3 -0.1,0.2 0.1,0.3 0.3,0.3 z"
                     id="path142"
                     inkscape:connector-curvature="0"
                     style="fill:#00aeef" /><path
                     class="st6"
                     d="m 205.4,64.7 h 0.5 v -0.5 l 0.8,-0.2 v 0.8 h 0.6 v 0.6 h -0.6 v 0.9 c 0,0.3 0.1,0.4 0.3,0.4 0.1,0 0.2,0 0.2,0 l 0,0.5 c -0.2,0 -0.3,0 -0.5,0 -0.7,0 -0.9,-0.3 -0.9,-0.9 v -1 h -0.5 v -0.6 z"
                     id="path144"
                     inkscape:connector-curvature="0"
                     style="fill:#00aeef" /><path
                     class="st6"
                     d="m 208.5,64.3 h -0.8 v -0.6 h 0.8 v 0.6 z m -0.9,0.4 h 0.8 V 67 h -0.8 v -2.3 z"
                     id="path146"
                     inkscape:connector-curvature="0"
                     style="fill:#00aeef" /><path
                     class="st6"
                     d="m 208.9,65.9 c 0,-0.8 0.6,-1.2 1.4,-1.2 0.8,0 1.4,0.4 1.4,1.2 0,0.8 -0.6,1.2 -1.4,1.2 -0.8,0 -1.4,-0.5 -1.4,-1.2 z m 1.9,0 c 0,-0.4 -0.2,-0.7 -0.5,-0.7 -0.4,0 -0.5,0.3 -0.5,0.7 0,0.3 0.2,0.7 0.5,0.7 0.3,-0.1 0.5,-0.4 0.5,-0.7 z"
                     id="path148"
                     inkscape:connector-curvature="0"
                     style="fill:#00aeef" /><path
                     class="st6"
                     d="m 212,64.7 h 0.7 v 0.4 h 0 c 0.2,-0.3 0.5,-0.5 0.9,-0.5 0.6,0 0.9,0.4 0.9,0.9 V 67 h -0.8 v -1.1 c 0,-0.4 -0.2,-0.6 -0.4,-0.6 -0.3,0 -0.5,0.2 -0.5,0.7 v 1 H 212 v -2.3 z"
                     id="path150"
                     inkscape:connector-curvature="0"
                     style="fill:#00aeef" /></g></g></g><g
               id="g152"><rect
                 x="63.299999"
                 y="65"
                 class="st6"
                 width="0.60000002"
                 height="3.0999999"
                 id="rect154"
                 style="fill:#00aeef" /><g
                 id="g156"><path
                   class="st6"
                   d="M 64.5,68.1 V 65 h 1.2 c 0.6,0 1,0.2 1,0.8 0,0.5 -0.3,0.6 -0.5,0.6 v 0 c 0.2,0 0.7,0.2 0.7,0.7 0,0.6 -0.5,0.9 -1.1,0.9 h -1.3 z m 1.1,-1.8 c 0.3,0 0.4,-0.2 0.4,-0.4 0,-0.2 -0.2,-0.4 -0.5,-0.4 h -0.4 v 0.8 h 0.5 z m 0,1.3 c 0.3,0 0.5,-0.1 0.5,-0.4 0,-0.3 -0.2,-0.4 -0.5,-0.4 h -0.5 v 0.9 h 0.5 z"
                   id="path158"
                   inkscape:connector-curvature="0"
                   style="fill:#00aeef" /><path
                   class="st6"
                   d="m 69.7,68.1 c 0,0 -0.1,0 -0.3,0 -0.9,0 -0.7,-1.2 -1.3,-1.2 H 67.8 V 68 h -0.6 v -3 h 1.1 c 0.7,0 1.2,0.3 1.2,1 0,0.4 -0.3,0.7 -0.5,0.8 0.3,0.3 0.3,0.9 0.7,0.9 h 0.1 v 0.4 z m -1.5,-1.6 c 0.4,0 0.6,-0.2 0.6,-0.5 0,-0.3 -0.2,-0.5 -0.6,-0.5 h -0.5 v 1 h 0.5 z"
                   id="path160"
                   inkscape:connector-curvature="0"
                   style="fill:#00aeef" /><path
                   class="st6"
                   d="M 70,68.1 V 65 h 0.9 c 0.8,0 1.5,0.4 1.5,1.6 0,1.1 -0.6,1.5 -1.4,1.5 h -1 z m 1,-0.5 c 0.5,0 0.8,-0.3 0.8,-1 0,-0.7 -0.3,-1.1 -0.9,-1.1 h -0.3 v 2.1 H 71 z"
                   id="path162"
                   inkscape:connector-curvature="0"
                   style="fill:#00aeef" /><path
                   class="st6"
                   d="m 74.2,67.4 c -0.3,0 -0.6,-0.3 -0.6,-0.6 0,-0.3 0.2,-0.6 0.6,-0.6 0.3,0 0.6,0.3 0.6,0.6 0,0.3 -0.3,0.6 -0.6,0.6"
                   id="path164"
                   inkscape:connector-curvature="0"
                   style="fill:#00aeef" /><rect
                   x="76.099998"
                   y="65"
                   class="st6"
                   width="0.60000002"
                   height="3.0999999"
                   id="rect166"
                   style="fill:#00aeef" /><path
                   class="st6"
                   d="M 77.3,68.1 V 65 h 0.9 c 0.8,0 1.5,0.4 1.5,1.6 0,1.1 -0.6,1.5 -1.4,1.5 h -1 z m 1,-0.5 c 0.5,0 0.8,-0.3 0.8,-1 0,-0.7 -0.3,-1.1 -0.9,-1.1 h -0.3 v 2.1 h 0.4 z"
                   id="path168"
                   inkscape:connector-curvature="0"
                   style="fill:#00aeef" /><path
                   class="st6"
                   d="m 81.7,67.3 h -1.1 l -0.3,0.8 H 79.7 L 80.8,65 h 0.6 l 1.1,3.1 h -0.6 l -0.2,-0.8 z m -0.9,-0.4 h 0.8 l -0.4,-1.1 -0.4,1.1 z"
                   id="path170"
                   inkscape:connector-curvature="0"
                   style="fill:#00aeef" /><polygon
                   class="st2"
                   points="64.6,58.5 64.6,63.2 63.4,63.2 63.4,58.5 61.7,58.5 61.7,57.6 66.3,57.6 66.3,58.5 "
                   id="polygon172"
                   style="fill:#002f54" /><polygon
                   class="st2"
                   points="68.1,59.8 70.2,59.8 70.2,57.6 71.5,57.6 71.5,63.2 70.3,63.2 70.3,60.8 68.1,60.8 68.1,63.2 66.9,63.2 66.9,57.6 68.1,57.6 "
                   id="polygon174"
                   style="fill:#002f54" /><polygon
                   class="st2"
                   points="73.6,58.5 73.6,59.9 76,59.9 76,60.8 73.6,60.8 73.6,62.3 76.3,62.3 76.3,63.2 72.4,63.2 72.4,57.6 76.2,57.6 76.2,58.5 "
                   id="polygon176"
                   style="fill:#002f54" /><polygon
                   class="st2"
                   points="84.5,61.8 85.4,57.6 86.6,57.6 85.1,63.2 83.8,63.2 82.8,58.9 82.8,58.9 81.7,63.2 80.3,63.2 79,57.6 80.2,57.6 81.1,61.8 81.1,61.8 82.2,57.6 83.5,57.6 84.5,61.8 "
                   id="polygon178"
                   style="fill:#002f54" /><path
                   class="st2"
                   d="m 87,60.4 c 0,-1.7 0.8,-2.9 2.7,-2.9 1.9,0 2.7,1.3 2.7,2.9 0,1.7 -0.8,2.9 -2.7,2.9 -1.9,0 -2.7,-1.2 -2.7,-2.9 m 1.3,0 c 0,1 0.2,2 1.4,2 1.2,0 1.4,-1.1 1.4,-2 0,-1 -0.2,-2.1 -1.4,-2.1 -1.2,0.1 -1.4,1.2 -1.4,2.1"
                   id="path180"
                   inkscape:connector-curvature="0"
                   style="fill:#002f54" /><path
                   class="st2"
                   d="m 94.4,63.2 h -1.2 v -5.6 h 2.4 c 1,0 1.9,0.3 1.9,1.5 0,0.7 -0.5,1.2 -1.2,1.4 v 0 c 0.9,0.1 0.9,0.7 1,1.4 0.1,0.4 0.1,1 0.3,1.3 h -1.3 c -0.1,-0.5 -0.2,-1 -0.2,-1.5 0,-0.3 -0.1,-0.7 -0.5,-0.8 h -1.3 v 2.3 z m 0,-3.2 h 1 c 0.5,0 0.8,-0.3 0.8,-0.8 0,-0.5 -0.3,-0.7 -0.8,-0.7 h -1 V 60 z"
                   id="path182"
                   inkscape:connector-curvature="0"
                   style="fill:#002f54" /><polygon
                   class="st2"
                   points="99.6,62.3 102,62.3 102,63.2 98.4,63.2 98.4,57.6 99.6,57.6 "
                   id="polygon184"
                   style="fill:#002f54" /><path
                   class="st2"
                   d="m 102.7,57.6 h 1.9 c 1.7,0 2.8,0.9 2.8,2.8 0,1.9 -1.1,2.8 -2.8,2.8 h -1.9 v -5.6 z m 1.2,4.7 h 0.6 c 1.4,0 1.6,-1 1.6,-1.9 0,-0.9 -0.2,-1.9 -1.6,-1.9 h -0.6 v 3.8 z"
                   id="path186"
                   inkscape:connector-curvature="0"
                   style="fill:#002f54" /><path
                   class="st2"
                   d="m 110.5,63.2 v -5.6 h 2.1 c 1,-0.1 2,0.4 2,1.5 0,0.6 -0.4,1 -1,1.2 v 0 c 0.7,0.1 1.2,0.6 1.2,1.5 0,1.1 -1.4,1.5 -2.3,1.4 h -2 z m 2.1,-0.9 c 0.6,0 1,-0.1 1,-0.8 0,-0.6 -0.4,-0.7 -1,-0.7 h -0.9 v 1.5 h 0.9 z m 0,-2.4 c 0.5,0 0.8,-0.2 0.8,-0.7 0,-0.5 -0.3,-0.7 -0.8,-0.7 h -0.9 v 1.3 h 0.9 z"
                   id="path188"
                   inkscape:connector-curvature="0"
                   style="fill:#002f54" /><path
                   class="st2"
                   d="m 115.2,63.2 2,-5.6 h 1.4 l 2,5.6 h -1.2 L 119,62 h -2.2 l -0.4,1.2 h -1.2 z m 3.5,-2.1 -0.8,-2.4 h 0 l -0.8,2.4 h 1.6 z"
                   id="path190"
                   inkscape:connector-curvature="0"
                   style="fill:#002f54" /><polygon
                   class="st2"
                   points="122.4,63.2 121.2,63.2 121.2,57.6 123,57.6 125.2,62 125.2,62 125.2,57.6 126.3,57.6 126.3,63.2 124.6,63.2 122.4,58.6 122.4,58.6 "
                   id="polygon192"
                   style="fill:#002f54" /><polygon
                   class="st2"
                   points="131.8,57.6 129.7,60.1 132,63.2 130.5,63.2 128.5,60.4 128.5,60.4 128.5,63.2 127.3,63.2 127.3,57.6 128.5,57.6 128.5,60 128.5,60 130.4,57.6 "
                   id="polygon194"
                   style="fill:#002f54" /></g></g></g><path
             class="st2"
             d="m 210.1,35.3 c 2.8,0 4.4,1.4 4.4,3.8 0,2.3 -1.5,3.7 -4.1,3.7 h -1.8 v 3.6 h -2.4 V 35.3 h 3.9 z m -1.5,5.6 h 1.4 c 1.4,0 2.1,-0.6 2.1,-1.8 0,-1.2 -0.8,-1.9 -2.2,-1.9 h -1.3 v 3.7 z m -6.7,1.1 c 0,1.6 -0.6,2.4 -1.9,2.4 -1.3,0 -2,-0.8 -2,-2.4 v -6.7 h -2.4 v 6.5 c 0,1.6 0.4,2.8 1.2,3.6 0.7,0.7 1.8,1.1 3.2,1.1 2,0 4.3,-0.8 4.3,-4.7 v -6.5 h -2.4 V 42 z m -12.8,-6.8 c 2.4,0 5,1.5 5,5.7 0,4.2 -2.6,5.7 -5,5.7 -2.4,0 -5,-1.5 -5,-5.7 0,-4.2 2.6,-5.7 5,-5.7 m 0,9.2 c 0.9,0 2.5,-0.5 2.5,-3.6 0,-3.1 -1.6,-3.6 -2.5,-3.6 -1.6,0 -2.5,1.3 -2.5,3.6 0,2.4 0.9,3.6 2.5,3.6 M 181.7,43 c 0.4,0.8 0.7,1.5 1.5,1.5 h 0.6 v 1.8 l -0.1,0 c 0,0 -0.4,0.1 -1.2,0.1 -1.9,0 -2.5,-1.3 -3,-2.4 -0.4,-0.9 -0.8,-1.7 -1.8,-1.7 h -1 v 4.1 h -2.4 V 35.3 h 3.9 c 2.9,0 4.2,1.1 4.2,3.5 0,1.5 -0.9,2.4 -1.8,2.8 0.6,0.4 0.8,0.9 1.1,1.4 m -4.9,-2.5 h 1.3 c 1.3,0 2.1,-0.6 2.1,-1.6 0,-1 -0.7,-1.6 -2,-1.6 h -1.5 v 3.2 z m -8.7,1.9 h 2.5 v 0.1 c 0,0.7 -0.3,1.9 -2,1.9 -1.6,0 -2.6,-1.3 -2.6,-3.5 0,-2.3 0.9,-3.6 2.5,-3.6 1.9,0 2,1.9 2,2 l 0,0.1 2.2,-0.3 V 39 c 0,-0.8 -0.7,-3.8 -4.2,-3.8 -3.1,0 -4.9,2.1 -4.9,5.7 0,3.5 1.9,5.7 5,5.7 3.1,0 4.2,-2.2 4.2,-4.1 v -1.9 h -4.7 v 1.8 z M 161,35.3 h -2.8 l -3.7,5 v -5 H 152 v 11.1 h 2.4 v -5.1 l 3.8,5.1 h 2.9 l -4.3,-5.6 4.2,-5.5 z m -13.5,6.9 -3.9,-6.9 h -2.4 v 11.1 h 2.4 v -6.6 l 3.9,6.6 h 2.4 V 35.3 h -2.4 v 6.9 z m -11,-6.8 4.1,11.1 h -2.5 l -1,-2.7 h -3.7 l -0.9,2.7 H 130 l 4.1,-11.1 2.4,0 0,0 z m -1.2,2.9 -1.2,3.5 h 2.4 l -1.2,-3.5 z m -7.5,2.3 c 0.9,0.2 2,1 2,2.7 0,2 -1.4,3.2 -3.9,3.2 h -4.7 V 35.3 h 4.2 c 2.4,0 3.6,1 3.6,3 0.1,1.5 -0.6,2.1 -1.2,2.3 m -2.6,-0.8 c 1,0 1.5,-0.4 1.5,-1.3 0,-0.8 -0.6,-1.3 -1.7,-1.3 h -1.3 v 2.6 h 1.5 z m -1.6,4.7 h 1.9 c 1.2,0 1.8,-0.5 1.8,-1.4 0,-1.2 -1,-1.4 -1.8,-1.4 h -1.8 v 2.8 z m -12.2,-9.2 c 3.5,0 5.5,2.2 5.5,5.8 0,3.4 -1.9,5.4 -5.1,5.4 H 108 V 35.3 h 3.4 z m -0.9,9.2 h 1.4 c 1.7,0 2.7,-1.3 2.7,-3.5 0,-2.5 -1.1,-3.8 -3.2,-3.8 h -0.9 v 7.3 z m -8.3,-9.2 h -2.4 v 11.1 h 7.2 v -2 h -4.8 V 35.3 z M 96.6,43 c 0.4,0.8 0.7,1.5 1.5,1.5 h 0.6 v 1.8 l -0.1,0 c 0,0 -0.4,0.1 -1.2,0.1 -1.9,0 -2.5,-1.3 -3,-2.4 -0.4,-0.9 -0.8,-1.7 -1.8,-1.7 h -1 v 4.1 H 89.2 V 35.3 h 3.9 c 2.9,0 4.2,1.1 4.2,3.5 0,1.5 -0.9,2.4 -1.8,2.8 0.6,0.4 0.9,0.9 1.1,1.4 M 91.7,40.5 H 93 c 1.3,0 2.1,-0.6 2.1,-1.6 0,-1 -0.7,-1.6 -2,-1.6 h -1.5 v 3.2 z M 83,35.2 c 2.4,0 5,1.5 5,5.7 0,4.2 -2.6,5.7 -5,5.7 -2.4,0 -5,-1.5 -5,-5.7 0,-4.2 2.6,-5.7 5,-5.7 m 0,9.2 c 0.9,0 2.5,-0.5 2.5,-3.6 0,-3.1 -1.6,-3.6 -2.5,-3.6 -1.6,0 -2.5,1.3 -2.5,3.6 -0.1,2.4 0.8,3.6 2.5,3.6 m -8,-9.1 h 2.7 l -3.2,11.1 h -2.7 l -1.9,-7 -2,7 H 65.2 L 62,35.3 h 2.8 l 1.9,8.1 2.2,-8.1 h 2 l 2.2,8.1 1.9,-8.1 z"
             id="path196"
             inkscape:connector-curvature="0"
             style="fill:#002f54" /></g></g></g></g></svg>